<mxfile host="app.diagrams.net" agent="Mozilla/5.0 (Windows NT 10.0; Win64; x64) AppleWebKit/537.36 (KHTML, like Gecko) Chrome/136.0.0.0 Safari/537.36" version="26.1.1">
  <diagram name="Page-1" id="XnHImOSnmTUTyuYHLlI6">
    <mxGraphModel dx="1034" dy="1594" grid="1" gridSize="10" guides="1" tooltips="1" connect="1" arrows="1" fold="1" page="1" pageScale="1" pageWidth="827" pageHeight="1169" math="0" shadow="0">
      <root>
        <mxCell id="0" />
        <mxCell id="1" parent="0" />
        <mxCell id="x2JVcxiwN9VGTN7cAI9j-1" value="SmartCite" style="swimlane;whiteSpace=wrap;html=1;" vertex="1" parent="1">
          <mxGeometry x="210" y="-440" width="690" height="330" as="geometry" />
        </mxCell>
        <mxCell id="x2JVcxiwN9VGTN7cAI9j-14" value="Authetification" style="ellipse;whiteSpace=wrap;html=1;" vertex="1" parent="x2JVcxiwN9VGTN7cAI9j-1">
          <mxGeometry x="360" y="140" width="140" height="60" as="geometry" />
        </mxCell>
        <mxCell id="x2JVcxiwN9VGTN7cAI9j-16" value="Inscription" style="ellipse;whiteSpace=wrap;html=1;" vertex="1" parent="x2JVcxiwN9VGTN7cAI9j-1">
          <mxGeometry x="550" y="200" width="130" height="60" as="geometry" />
        </mxCell>
        <mxCell id="x2JVcxiwN9VGTN7cAI9j-15" value="Connexion" style="ellipse;whiteSpace=wrap;html=1;" vertex="1" parent="x2JVcxiwN9VGTN7cAI9j-1">
          <mxGeometry x="540" y="80" width="130" height="60" as="geometry" />
        </mxCell>
        <mxCell id="x2JVcxiwN9VGTN7cAI9j-17" value="Signaler problème urbain" style="ellipse;whiteSpace=wrap;html=1;" vertex="1" parent="x2JVcxiwN9VGTN7cAI9j-1">
          <mxGeometry x="30" y="40" width="140" height="60" as="geometry" />
        </mxCell>
        <mxCell id="x2JVcxiwN9VGTN7cAI9j-18" value="Consulter problème urbain" style="ellipse;whiteSpace=wrap;html=1;" vertex="1" parent="x2JVcxiwN9VGTN7cAI9j-1">
          <mxGeometry x="120" y="170" width="140" height="60" as="geometry" />
        </mxCell>
        <mxCell id="x2JVcxiwN9VGTN7cAI9j-19" value="Modifier problème urbain" style="ellipse;whiteSpace=wrap;html=1;" vertex="1" parent="x2JVcxiwN9VGTN7cAI9j-1">
          <mxGeometry x="240" y="240" width="140" height="60" as="geometry" />
        </mxCell>
        <mxCell id="x2JVcxiwN9VGTN7cAI9j-20" value="Notification sur un problème" style="ellipse;whiteSpace=wrap;html=1;" vertex="1" parent="x2JVcxiwN9VGTN7cAI9j-1">
          <mxGeometry x="190" y="70" width="140" height="60" as="geometry" />
        </mxCell>
        <mxCell id="x2JVcxiwN9VGTN7cAI9j-10" value="citoyen&lt;div&gt;&lt;br&gt;&lt;/div&gt;" style="shape=umlActor;verticalLabelPosition=bottom;verticalAlign=top;html=1;outlineConnect=0;" vertex="1" parent="1">
          <mxGeometry x="150" y="-390" width="30" height="60" as="geometry" />
        </mxCell>
        <mxCell id="x2JVcxiwN9VGTN7cAI9j-12" value="agent municipal" style="shape=umlActor;verticalLabelPosition=bottom;verticalAlign=top;html=1;outlineConnect=0;" vertex="1" parent="1">
          <mxGeometry x="150" y="-250" width="30" height="60" as="geometry" />
        </mxCell>
      </root>
    </mxGraphModel>
  </diagram>
</mxfile>
